<?xml version="1.0" encoding="UTF-8"?>
<svg id="Layer_1" xmlns="http://www.w3.org/2000/svg" version="1.1" viewBox="0 0 1080 472">
  <!-- Generator: Adobe Illustrator 30.1.0, SVG Export Plug-In . SVG Version: 2.1.1 Build 136)  -->
  <defs>
    <style>
      .st0 {
        fill: #fff;
      }

      .st1 {
        fill: #ff6f20;
      }
    </style>
  </defs>
  <g>
    <path class="st0" d="M965.4,1031.3h-18.7v26.9h18.7,0c42.1,0,64-38.2,64-67.3h-23.4c0,8-7.2,40.4-40.5,40.4Z"/>
    <path class="st0" d="M1005.9,853.7v68.8c-.3,25.4-18.4,45.9-40.5,45.9s-40.2-20.5-40.5-45.9v-68.8h-23.5v68.8h0c0,40.4,28.8,73.1,64,73.1s63.7-32.7,64-73.1v-68.8h-23.4Z"/>
    <path class="st0" d="M869.7,867.8c-6.2-6.9-14.2-12.3-23.9-16s-21.4-5.6-35.1-5.6h0c-11.4,0-21.5,3.5-30.4,10.4-8.9,7-16.2,16.3-21.9,28h-2.1v-32h-22.2v205.9h22.2v-92.1l2.1.3c2.1,4.6,4.9,9.2,8.4,13.9,3.5,4.6,7.5,8.8,12.2,12.4,4.6,3.7,9.9,6.6,15.8,9,5.9,2.3,12.3,3.5,19.2,3.5,11,0,21.1-1.8,30.2-5.5s16.8-8.9,23.2-15.8c6.4-6.9,11.4-15.2,15-25,3.6-9.8,5.3-21.3,5.3-33.4s-1.4-23.1-4.3-32.9c-2.8-9.8-7.4-18.1-13.6-25.1ZM863.3,945.8c-1.4,6.8-4.1,12.9-8.1,18.4-4,5.5-9.5,10.1-16.6,13.6-7,3.6-16.2,5.3-27.4,5.3h0c-7.5,0-14.5-1.5-21.2-4.4s-12.5-7-17.5-12.1c-5-5.2-8.9-11.3-11.8-18.3-2.9-7-4.3-14.6-4.3-22.8s1.1-11.6,3.5-18.3c2.3-6.7,5.7-12.9,10.3-18.6,4.5-5.7,10.2-10.5,17-14.4,6.8-3.9,14.6-5.9,23.5-5.9,19,0,32.9,4.6,41.7,13.8,8.7,9.2,13.1,23.7,13.1,43.7s-.7,13.3-2.1,20Z"/>
    <path class="st0" d="M706.4,867.8c-6.2-6.9-14.2-12.3-23.9-16s-21.4-5.6-35.1-5.6h0c-11.4,0-21.5,3.5-30.4,10.4-8.9,7-16.2,16.3-21.9,28h-2.1v-32h-22.2v205.9h22.2v-92.1l2.1.3c2.1,4.6,4.9,9.2,8.4,13.9,3.5,4.6,7.5,8.8,12.2,12.4,4.6,3.7,9.9,6.6,15.8,9,5.9,2.3,12.3,3.5,19.2,3.5,11,0,21.1-1.8,30.2-5.5s16.8-8.9,23.2-15.8c6.4-6.9,11.4-15.2,15-25,3.6-9.8,5.3-21.3,5.3-33.4s-1.4-23.1-4.3-32.9c-2.8-9.8-7.4-18.1-13.6-25.1ZM700,945.8c-1.4,6.8-4.1,12.9-8.1,18.4-4,5.5-9.5,10.1-16.6,13.6-7,3.6-16.2,5.3-27.4,5.3h0c-7.5,0-14.5-1.5-21.2-4.4s-12.5-7-17.5-12.1c-5-5.2-8.9-11.3-11.8-18.3-2.9-7-4.3-14.6-4.3-22.8s1.1-11.6,3.5-18.3c2.3-6.7,5.7-12.9,10.3-18.6,4.5-5.7,10.2-10.5,17-14.4,6.8-3.9,14.6-5.9,23.5-5.9,19,0,32.9,4.6,41.7,13.8,8.7,9.2,13.1,23.7,13.1,43.7s-.7,13.3-2.1,20Z"/>
    <path class="st0" d="M544.1,915.6c-2.8-4.5-5.7-7.8-8.5-10.2-2.9-2.3-4.9-3.8-6.1-4.5h0c0-2.1,0-5.9-.1-11.2,0-5.3-.2-10.9-.4-16.6-.2-6.4-.4-13.4-.5-21.1h-124.4v22.2h102.5c0,.4,0,1.2.1,2.7,0,1.4.2,3.1.3,4.9,0,1.9.2,3.7.3,5.6,0,1.9.1,3.4.1,4.7-4.6-1.1-9.5-1.8-14.5-2.3-5.1-.4-10.5-.7-16.2-.7-11.4,0-21.6,1.9-30.7,5.7-9.1,3.8-16.7,8.8-23,15-6.2,6.1-11,13.1-14.4,21-3.4,7.8-5.1,15.8-5.1,23.8s1.2,12.7,3.5,19c2.3,6.2,5.8,11.8,10.5,16.7,4.7,4.9,10.7,8.8,18,11.8,7.3,2.9,16,4.4,26.2,4.4s17-1.4,23.8-4.1c6.8-2.8,12.5-6.3,17.4-10.7,4.8-4.4,8.8-9.3,11.9-14.8,3.1-5.5,5.6-11.1,7.6-16.7,2-5.6,3.4-11,4.3-16.2s1.5-9.5,1.9-13.1c2.1,4.1,3.4,8.5,3.7,13.2.4,4.7.5,9.3.5,13.8v40.9h22.2v-40.9c0-10-1.1-18.4-3.2-25.2-2.1-6.8-4.6-12.5-7.5-17ZM506.8,927.9c-.2,4.8-.8,9.8-1.7,15-1,5.2-2.4,10.2-4.1,15.1-1.8,4.9-4.4,9.3-7.7,13.2-3.4,3.9-7.6,7.1-12.7,9.5-5.1,2.4-11.3,3.6-18.8,3.6h0c-11.2,0-20-2.6-26.4-7.9-6.4-5.2-9.6-12.9-9.6-21.8s1.7-16.2,5.2-21.8c3.5-5.6,7.8-10,13-13.2,5.2-3.2,10.7-5.4,16.7-6.5,6-1.2,11.3-1.7,16.2-1.7s12.4.3,17.4.9c5,.6,9.4,1.6,13.3,2.8-.2,3.7-.3,8-.5,12.8Z"/>
    <path class="st0" d="M247.3,912.4c-.6.3-1.2.5-1.8.8,0,1.6-.2,3.2-.2,4.8v80.7h28.9v-80.7c0-8,2.2-15.4,5.9-21.8-9.5,6.3-22.1,11-32.8,16.1h0Z"/>
    <path class="st0" d="M317.1,846.2c-12.2,0-23.6,3-33.7,8.4,9.7,5.1,12.6,18.6,8.9,28.4,7-5,15.6-7.9,24.8-7.9,23.9,0,43.3,19,43.3,43v80.6h28.8v-80.6c0-39.7-32.5-71.8-72.1-71.8Z"/>
  </g>
  <path class="st1" d="M255.4,242.7c-13.1,4.5-27.6,10-42.5,16.4-10.5,3.6-22.4,9.4-33.9,15.7-5.7-6.2-11.8-12.3-18.3-17.7-9.5-8-16.4-14.2-23.1-20.4-4.3-4-10-10.4-15.3-16.3-43.3-56.3-22-116.1,40.2-150.2,18.1-10.5,37.9.9,41,20.6,1.6,13-5.9,27.7-12.9,38.9-4.4,7.1-11.4,14.6-14.3,20.7v.2c0,0,0,0,0,0-8.3,15.4,10.7,32.7,25.8,30.5,6.4-1,11-7.2,15.8-12.4,8.7-10.2,16-22.1,20.8-34.8,9.1-24.7,11-55.8.5-79-9.6-13-26.1-29.7-58.8-31.4-21.1-.5-42.4,6.6-59.7,18-9.1,6-18.4,12-25.2,18.9-42.2,44.3-75.1,125.9.5,200.5,12.5,12.5,27.1,23.1,40.6,33.5,1.1.8,2.3,1.8,3.5,2.8-1.4.9-2.8,1.8-4.2,2.8-9.6,5.5-21,15.3-27.7,21.3-1.9,1.7-3.8,3.4-5.6,5.2-19.9,18.6-30.1,42.6-27.6,69.5,4,52.8,61.7,62.3,102.3,43,34.3-20.4,56.1-63.4,39.1-110-2.9-8.4-6.3-15.5-10.6-22.1,0,0,0,0,0,0,0,0,0,0,0,0h0c11.5-5.8,23.2-11.2,34.8-15.7,14.6-6.4,33-12,41.4-21.4,10-11.2.9-36.4-26.4-27.1ZM168.7,389.8c-9.1,10.4-24,17.3-36.6,16.5-12.8-.6-16.3-15.3-12.1-26.9,2.5-7.2,6.7-14,11.8-20.2h0s0,0,0,0c2.8-3.4,5.9-6.6,9.1-9.7,5.7-5.1,12.4-10.5,16.4-13.6,3.2-2.4,6.3-4.6,9.3-6.7,0,0,0,0,0,0,0,0,0,0,0,0,4.2,7.1,7.7,14.5,9.6,21.8,4.6,14.4,3.2,27.4-7.6,38.9Z"/>
</svg>